<svg xmlns="http://www.w3.org/2000/svg" height="512pt" version="1.1" viewBox="0 0 512 512" width="512pt">
<g id="surface1">
<path d="M 437.019531 74.980469 C 388.664062 26.628906 324.378906 0 256 0 C 187.617188 0 123.332031 26.628906 74.980469 74.980469 C 26.628906 123.332031 0 187.617188 0 256 C 0 324.378906 26.628906 388.667969 74.980469 437.019531 C 123.332031 485.371094 187.617188 512 256 512 C 324.378906 512 388.664062 485.371094 437.019531 437.019531 C 485.371094 388.667969 512 324.378906 512 256 C 512 187.621094 485.371094 123.332031 437.019531 74.980469 Z M 437.019531 74.980469 " style=" stroke:none;fill-rule:nonzero;fill:rgb(100%,81.960784%,16.862745%);fill-opacity:1;" />
<path d="M 437.019531 74.980469 C 388.664062 26.628906 324.378906 0 256 0 L 256 512 C 324.378906 512 388.664062 485.371094 437.019531 437.019531 C 485.371094 388.667969 512 324.378906 512 256 C 512 187.621094 485.371094 123.332031 437.019531 74.980469 Z M 437.019531 74.980469 " style=" stroke:none;fill-rule:nonzero;fill:rgb(100%,69.019608%,13.72549%);fill-opacity:1;" />
<path d="M 376.5 273.132812 L 135.5 273.132812 C 127.214844 273.132812 120.5 279.847656 120.5 288.132812 C 120.5 362.847656 181.285156 423.632812 256 423.632812 C 330.714844 423.632812 391.5 362.847656 391.5 288.132812 C 391.5 279.847656 384.78125 273.132812 376.5 273.132812 Z M 376.5 273.132812 " style=" stroke:none;fill-rule:nonzero;fill:rgb(100%,38.039216%,58.039216%);fill-opacity:1;" />
<path d="M 226.199219 113.199219 C 218.035156 105.03125 207.179688 100.535156 195.632812 100.535156 C 188.566406 100.535156 181.757812 102.21875 175.664062 105.398438 C 169.574219 102.21875 162.769531 100.535156 155.699219 100.535156 C 144.152344 100.535156 133.296875 105.03125 125.128906 113.199219 C 108.273438 130.054688 108.273438 157.484375 125.128906 174.34375 L 165.0625 214.273438 C 167.988281 217.203125 171.828125 218.664062 175.664062 218.664062 C 179.503906 218.664062 183.34375 217.199219 186.269531 214.273438 L 226.203125 174.34375 C 234.367188 166.175781 238.863281 155.320312 238.863281 143.769531 C 238.863281 132.222656 234.367188 121.363281 226.199219 113.199219 Z M 226.199219 113.199219 " style=" stroke:none;fill-rule:nonzero;fill:rgb(100%,38.039216%,58.039216%);fill-opacity:1;" />
<path d="M 386.867188 113.199219 C 378.703125 105.03125 367.847656 100.535156 356.296875 100.535156 C 349.230469 100.535156 342.421875 102.21875 336.332031 105.398438 C 330.242188 102.21875 323.433594 100.535156 316.367188 100.535156 C 304.816406 100.535156 293.960938 105.03125 285.796875 113.199219 C 277.628906 121.363281 273.132812 132.222656 273.132812 143.769531 C 273.132812 155.320312 277.628906 166.175781 285.796875 174.34375 L 325.726562 214.273438 C 328.65625 217.199219 332.492188 218.664062 336.332031 218.664062 C 340.171875 218.664062 344.011719 217.199219 346.9375 214.273438 L 386.867188 174.34375 C 395.035156 166.175781 399.53125 155.320312 399.53125 143.769531 C 399.53125 132.222656 395.035156 121.363281 386.867188 113.199219 Z M 386.867188 113.199219 " style=" stroke:none;fill-rule:nonzero;fill:rgb(100%,22.352941%,69.411765%);fill-opacity:1;" />
<path d="M 376.5 273.132812 L 256 273.132812 L 256 423.632812 C 330.714844 423.632812 391.5 362.847656 391.5 288.132812 C 391.5 279.847656 384.78125 273.132812 376.5 273.132812 Z M 376.5 273.132812 " style=" stroke:none;fill-rule:nonzero;fill:rgb(100%,22.352941%,69.411765%);fill-opacity:1;" />
</g>
</svg>